<?xml version="1.0" standalone="no"?>
<!DOCTYPE svg PUBLIC "-//W3C//DTD SVG 20010904//EN"
 "http://www.w3.org/TR/2001/REC-SVG-20010904/DTD/svg10.dtd">
<svg version="1.0" xmlns="http://www.w3.org/2000/svg"
 width="500.000000pt" height="500.000000pt" viewBox="0 0 500.000000 500.000000"
 preserveAspectRatio="xMidYMid meet">

<g transform="translate(0.000000,500.000000) scale(0.100000,-0.100000)"
fill="#000000" stroke="none">
<path d="M2181 3337 c-173 -100 -314 -186 -314 -191 1 -6 143 -91 317 -190
l315 -181 1 -373 c0 -230 4 -372 9 -370 6 2 57 30 115 63 l105 60 1 256 0 255
98 57 c55 31 102 57 105 57 4 0 8 -113 9 -250 l3 -250 100 58 100 58 3 375 2
375 -323 187 c-178 103 -326 187 -328 187 -2 -1 -145 -83 -318 -183z m532
-193 c-3 -9 -192 -123 -205 -124 -5 0 -8 58 -8 130 l0 129 108 -63 c59 -35
106 -68 105 -72z"/>
<path d="M2067 2826 c-32 -7 -70 -22 -85 -33 l-27 -20 -2 -267 c-2 -252 -2
-267 17 -286 68 -68 372 -70 433 -2 14 16 16 51 16 283 0 262 0 266 -22 287
-49 46 -207 64 -330 38z"/>
<path d="M1682 2008 c-7 -7 -12 -23 -12 -35 0 -30 -109 -173 -132 -173 -31 0
-48 -12 -48 -35 0 -18 -11 -26 -56 -43 -49 -18 -59 -19 -71 -6 -22 22 -28 17
-7 -7 15 -17 16 -23 6 -42 -10 -18 -8 -17 10 4 30 33 99 60 136 53 34 -7 66
19 57 46 -8 24 111 181 131 173 8 -3 14 -14 14 -24 0 -12 7 -19 20 -19 19 0
20 -7 20 -210 l0 -210 35 0 34 0 3 86 3 87 68 -87 67 -86 66 0 c61 0 65 1 53
17 -8 9 -42 50 -76 92 -35 41 -63 78 -63 81 0 3 14 13 30 22 58 33 76 132 36
193 -26 39 -69 55 -170 62 -85 5 -93 8 -89 24 10 38 -38 64 -65 37z m53 -28
c0 -18 -6 -26 -23 -28 -24 -4 -38 18 -28 44 3 9 15 14 28 12 17 -2 23 -10 23
-28z m165 -140 c11 -11 20 -29 20 -40 0 -29 -36 -60 -70 -60 l-30 0 0 60 0 60
30 0 c17 0 39 -9 50 -20z m-346 -66 c7 -19 -10 -44 -31 -44 -17 0 -27 24 -19
45 7 20 42 19 50 -1z"/>
<path d="M2190 1769 c-120 -50 -129 -229 -13 -284 42 -20 105 -15 134 11 17
16 19 16 19 1 0 -14 10 -17 50 -17 l50 0 0 145 0 145 -49 0 c-31 0 -51 -5 -54
-12 -3 -10 -7 -10 -18 -1 -21 17 -90 24 -119 12z m122 -96 c22 -20 23 -70 1
-95 -20 -22 -70 -23 -95 -1 -10 9 -18 29 -18 45 0 57 70 89 112 51z"/>
<path d="M2924 1761 c-59 -27 -89 -73 -89 -138 0 -117 121 -186 238 -135 25
11 50 29 56 41 10 18 7 22 -21 37 -29 15 -34 15 -59 0 -15 -9 -36 -16 -46 -16
-25 0 -63 28 -63 46 0 11 20 14 106 14 l107 0 -7 41 c-9 56 -37 93 -86 113
-52 21 -85 20 -136 -3z m112 -68 c17 -17 16 -18 -14 -21 -18 -2 -44 -2 -59 0
-26 3 -26 4 -9 21 10 9 28 17 41 17 13 0 31 -8 41 -17z"/>
<path d="M3328 1765 c-17 -9 -29 -11 -33 -5 -3 5 -28 10 -56 10 l-49 0 0 -145
0 -145 50 0 50 0 0 84 c0 69 4 88 21 110 23 29 50 33 73 10 12 -12 16 -37 16
-110 l0 -94 49 0 c48 0 48 0 55 38 10 62 6 165 -7 191 -29 57 -116 86 -169 56z"/>
<path d="M2460 1764 c0 -3 33 -68 73 -144 l72 -140 36 0 36 0 74 137 c41 75
76 141 77 145 2 4 -23 8 -56 8 l-59 0 -35 -77 -35 -78 -36 78 -36 77 -55 0
c-31 0 -56 -2 -56 -6z"/>
<path d="M1307 1713 c-15 -15 -6 -53 16 -64 21 -12 21 -11 5 8 -21 23 -23 49
-5 56 6 3 7 6 1 6 -6 1 -14 -2 -17 -6z"/>
<path d="M2763 1270 c0 -47 2 -66 4 -42 2 23 2 61 0 85 -2 23 -4 4 -4 -43z"/>
<path d="M2893 1343 c-7 -2 -13 -13 -13 -24 0 -10 -5 -19 -11 -19 -8 0 -8 -4
-1 -13 6 -7 12 -33 15 -57 l4 -45 1 48 c2 34 6 47 17 47 8 0 15 5 15 10 0 6
-7 10 -15 10 -22 0 -18 21 5 27 11 3 17 9 14 14 -6 10 -12 10 -31 2z"/>
<path d="M3363 1270 c0 -47 2 -66 4 -42 2 23 2 61 0 85 -2 23 -4 4 -4 -43z"/>
<path d="M3770 1321 c0 -28 -2 -29 -33 -24 -57 9 -91 -52 -51 -91 18 -18 60
-21 70 -5 4 8 9 7 15 -2 5 -9 9 19 9 69 0 45 -2 82 -5 82 -3 0 -5 -13 -5 -29z
m-13 -58 c13 -19 12 -24 -6 -42 -17 -17 -25 -19 -41 -11 -22 12 -26 50 -8 68
17 17 38 11 55 -15z"/>
<path d="M1217 1333 c-11 -10 -8 -143 3 -143 6 0 10 26 10 58 l1 57 25 -47
c13 -27 28 -48 32 -48 4 0 19 21 32 48 l25 47 6 -60 6 -60 1 78 c1 42 -2 77
-6 77 -5 0 -19 -22 -32 -50 -13 -27 -26 -50 -30 -50 -4 0 -17 23 -30 50 -23
49 -30 56 -43 43z"/>
<path d="M1675 1330 c3 -5 8 -10 11 -10 2 0 4 5 4 10 0 6 -5 10 -11 10 -5 0
-7 -4 -4 -10z"/>
<path d="M2025 1330 c3 -5 8 -10 11 -10 2 0 4 5 4 10 0 6 -5 10 -11 10 -5 0
-7 -4 -4 -10z"/>
<path d="M3226 1319 c-67 -52 -2 -154 78 -123 30 12 16 22 -23 17 -34 -5 -41
-2 -55 19 -32 49 15 102 73 83 12 -3 21 -2 21 3 0 9 -32 22 -56 22 -6 0 -23
-9 -38 -21z"/>
<path d="M1741 1318 c0 -9 -7 -19 -13 -22 -10 -5 -10 -7 0 -12 6 -3 12 -23 12
-45 0 -41 17 -58 41 -43 9 5 6 10 -9 15 -31 12 -31 64 1 74 l22 8 -22 4 c-12
2 -24 12 -26 21 -4 16 -5 16 -6 0z"/>
<path d="M2421 1318 c0 -9 -7 -19 -13 -22 -10 -5 -10 -7 0 -12 6 -3 12 -23 12
-45 0 -41 17 -58 41 -43 9 5 6 10 -9 15 -31 12 -31 64 1 74 l22 8 -22 4 c-12
2 -24 12 -26 21 -4 16 -5 16 -6 0z"/>
<path d="M1418 1289 c-22 -13 -24 -62 -2 -83 21 -21 57 -20 77 2 46 50 -16
116 -75 81z m53 -9 c24 -14 25 -56 1 -69 -14 -7 -25 -6 -40 5 -26 18 -28 37
-6 58 18 19 20 19 45 6z"/>
<path d="M1541 1240 c1 -49 2 -51 8 -20 10 49 18 60 47 60 22 0 24 -4 24 -45
0 -25 5 -45 10 -45 15 0 12 86 -4 99 -7 6 -30 10 -50 9 l-36 -3 1 -55z"/>
<path d="M1683 1245 c0 -33 2 -45 4 -27 2 18 2 45 0 60 -2 15 -4 0 -4 -33z"/>
<path d="M1820 1285 c-18 -22 -15 -66 6 -82 40 -29 87 -7 87 42 0 34 -20 55
-53 55 -15 0 -33 -7 -40 -15z m65 -8 c13 -10 16 -21 11 -40 -5 -21 -12 -27
-35 -27 -40 0 -54 35 -25 64 19 19 25 20 49 3z"/>
<path d="M1952 1245 l1 -60 7 45 c4 25 4 52 -1 60 -5 9 -8 -8 -7 -45z"/>
<path d="M1975 1290 c-3 -5 1 -10 9 -10 9 0 16 5 16 10 0 6 -4 10 -9 10 -6 0
-13 -4 -16 -10z"/>
<path d="M2033 1245 c0 -33 2 -45 4 -27 2 18 2 45 0 60 -2 15 -4 0 -4 -33z"/>
<path d="M2080 1243 c0 -29 5 -53 10 -53 6 0 10 18 10 40 0 28 5 42 18 49 27
14 45 -2 52 -51 l7 -43 2 46 c1 55 -12 69 -62 67 l-37 -1 0 -54z"/>
<path d="M2220 1280 c-25 -47 -1 -85 50 -78 35 5 41 -15 10 -32 -14 -8 -26 -8
-41 1 -17 9 -20 8 -17 -3 3 -7 18 -14 35 -16 42 -4 63 27 63 93 l0 51 -45 2
c-35 1 -47 -3 -55 -18z m74 -12 c23 -37 -35 -78 -60 -43 -20 27 3 68 35 62 8
-1 19 -10 25 -19z"/>
<path d="M2497 1282 c-21 -23 -21 -41 -1 -70 30 -44 94 -18 94 38 0 47 -61 68
-93 32z m67 -8 c22 -21 20 -40 -6 -58 -15 -11 -26 -12 -40 -5 -23 12 -24 55 0
68 23 14 28 14 46 -5z"/>
<path d="M2630 1285 c-18 -22 -15 -66 6 -82 40 -29 87 -7 87 42 0 34 -20 55
-53 55 -15 0 -33 -7 -40 -15z m65 -8 c13 -10 16 -21 11 -40 -5 -21 -12 -27
-35 -27 -40 0 -54 35 -25 64 19 19 25 20 49 3z"/>
<path d="M2946 1284 c-21 -21 -20 -57 2 -77 24 -22 55 -21 75 1 34 37 11 92
-38 92 -13 0 -31 -7 -39 -16z m74 -39 c0 -29 -28 -47 -53 -34 -40 23 -6 90 35
68 10 -5 18 -21 18 -34z"/>
<path d="M3070 1243 c0 -29 5 -53 10 -53 6 0 10 17 10 39 0 29 6 42 23 54 22
15 22 15 -10 15 l-33 -1 0 -54z"/>
<path d="M3417 1282 c-21 -23 -21 -41 -1 -70 30 -44 94 -18 94 38 0 47 -61 68
-93 32z m67 -8 c22 -21 20 -40 -6 -58 -15 -11 -26 -12 -40 -5 -23 12 -24 55 0
68 23 14 28 14 46 -5z"/>
<path d="M3540 1256 c0 -52 15 -67 64 -64 l36 3 -1 55 -1 55 -11 -45 c-10 -38
-16 -45 -37 -45 -22 0 -25 5 -28 43 -4 55 -22 54 -22 -2z"/>
</g>
</svg>
